# File created by Blade
# Date/Time:  Thu Sep 25 15:41:58 2014
# Frame Rate: 120.000 fps
#------------------------------------------------------
:FULLY-SPECIFIED
:DEGREES
477
root -13.789161 35.429049 0.455472 216.147567 -65.367659 -46.067313
Spine -22.023985 11.658849 -10.890194
Head -79.668944 7.185859 2.202052
LeftShoulder -18.916830 36.468884 11.532984
LeftArm 172.619042 -57.861004 -113.463008
LeftForeArm 6.927713 0.000000 19.102880
LeftHand -40.621918 -0.000000 83.043319
LeftHandThumb1 -26.253704 0.000000 33.147579
RightShoulder -10.943824 10.026401 -26.649197
RightArm 105.639056 42.960511 57.226731
RightForeArm -12.970426 0.000000 23.347975
RightHand -5.631568 0.000000 -70.971758
RightHandThumb1 -24.326973 -0.000000 -32.862282
LeftUpLeg -58.910619 15.796073 -3.440319
LeftLeg 27.666807 -0.000000 -0.000000
LeftFoot 29.827040 33.061418 -16.416770
LeftToeBase 15.584697 -0.000000 -0.000000
RightUpLeg 3.149870 -26.921427 -6.755067
RightLeg 3.666518 -0.000000 -0.000000
RightFoot 37.905819 6.324409 11.876756
RightToeBase 10.730642 -0.000000 -0.000000
478
root -13.882303 35.429963 0.422406 215.513850 -65.523050 -45.501568
Spine -21.804312 11.945396 -10.489750
Head -79.431218 6.714113 1.795696
LeftShoulder -18.852775 36.694759 11.362123
LeftArm 172.298760 -57.079625 -113.397641
LeftForeArm 7.468863 -0.000000 19.700602
LeftHand -41.006189 -0.000000 83.090079
LeftHandThumb1 -26.253704 0.000000 33.147579
RightShoulder -11.058317 9.889928 -26.870821
RightArm 105.516894 42.760342 57.494860
RightForeArm -13.364539 -0.000000 24.067083
RightHand -5.730127 -0.000000 -71.126546
RightHandThumb1 -24.326973 -0.000000 -32.862282
LeftUpLeg -55.154763 15.340642 -3.102064
LeftLeg 26.115396 -0.000000 -0.000000
LeftFoot 30.062827 32.900629 -16.354016
LeftToeBase 15.293564 -0.000000 -0.000000
RightUpLeg 3.990752 -26.969493 -6.702553
RightLeg 3.399412 -0.000000 -0.000000
RightFoot 37.811423 6.740447 12.039072
RightToeBase 10.563179 -0.000000 -0.000000
479
root -13.968103 35.440410 0.386420 214.736659 -65.729199 -44.844833
Spine -21.469316 12.224958 -9.987257
Head -79.294171 6.164715 1.406687
LeftShoulder -18.709281 36.935321 11.146547
LeftArm 172.343193 -56.661721 -113.645166
LeftForeArm 7.675144 0.000000 20.071659
LeftHand -39.965280 0.000000 83.696986
LeftHandThumb1 -26.253704 0.000000 33.147579
RightShoulder -11.157362 9.828229 -27.183119
RightArm 105.120420 42.689377 57.496656
RightForeArm -13.512036 -0.000000 24.768297
RightHand -5.681495 -0.000000 -71.374976
RightHandThumb1 -24.326973 -0.000000 -32.862282
LeftUpLeg -51.385567 14.787942 -2.632176
LeftLeg 24.433236 -0.000000 -0.000000
LeftFoot 30.303188 32.644840 -16.350002
LeftToeBase 15.267058 -0.000000 -0.000000
RightUpLeg 4.857723 -26.854507 -6.588679
RightLeg 3.195793 -0.000000 -0.000000
RightFoot 37.573866 7.040221 12.098535
RightToeBase 10.193446 -0.000000 -0.000000
480
root -14.047127 35.455419 0.348944 213.839604 -65.923959 -44.091893
Spine -21.072775 12.483419 -9.457600
Head -79.245501 5.757407 1.101311
LeftShoulder -18.591807 37.026435 11.000955
LeftArm 172.188770 -56.486168 -113.693637
LeftForeArm 7.877332 0.000000 20.563436
LeftHand -40.975407 -0.000000 83.469521
LeftHandThumb1 -26.253704 0.000000 33.147579
RightShoulder -11.289066 9.580881 -27.417682
RightArm 104.855943 42.826597 57.396503
RightForeArm -13.365309 0.000000 25.384369
RightHand -5.719133 -0.000000 -71.479571
RightHandThumb1 -24.326973 -0.000000 -32.862282
LeftUpLeg -47.655457 14.204629 -2.108687
LeftLeg 22.659673 -0.000000 -0.000000
LeftFoot 30.716619 32.295002 -16.001218
LeftToeBase 15.668052 -0.000000 -0.000000
RightUpLeg 5.697894 -26.652739 -6.440209
RightLeg 3.054997 -0.000000 -0.000000
RightFoot 37.276550 7.246940 12.132837
RightToeBase 10.168068 -0.000000 -0.000000
481
root -14.121357 35.477363 0.310286 212.841399 -66.111958 -43.204353
Spine -20.718669 12.711979 -8.856962
Head -79.132209 5.454089 0.830971
LeftShoulder -18.421555 37.172538 10.832947
LeftArm 172.329319 -56.582639 -113.953137
LeftForeArm 7.883542 0.000000 20.784124
LeftHand -41.303269 -0.000000 83.514357
LeftHandThumb1 -26.253704 0.000000 33.147579
RightShoulder -11.433790 9.397991 -27.764674
RightArm 104.502499 42.881767 57.302780
RightForeArm -13.276677 0.000000 25.931046
RightHand -5.785315 -0.000000 -71.517910
RightHandThumb1 -24.326973 -0.000000 -32.862282
LeftUpLeg -44.031077 13.592263 -1.547644
LeftLeg 20.781761 -0.000000 -0.000000
LeftFoot 31.252096 31.909346 -15.665899
LeftToeBase 15.289760 -0.000000 -0.000000
RightUpLeg 6.460709 -26.457484 -6.232390
RightLeg 2.935968 -0.000000 -0.000000
RightFoot 37.105679 7.450134 12.142924
RightToeBase 9.716874 -0.000000 -0.000000
482
root -14.199491 35.504508 0.270227 211.784816 -66.276196 -42.204493
Spine -20.396613 12.853378 -8.246137
Head -79.026168 5.373446 0.687037
LeftShoulder -18.274762 37.097207 10.719230
LeftArm 172.282389 -57.014026 -113.967356
LeftForeArm 7.644560 -0.000000 20.795097
LeftHand -41.220637 -0.000000 83.784426
LeftHandThumb1 -26.253704 0.000000 33.147579
RightShoulder -11.438910 9.227193 -27.981657
RightArm 104.163782 43.110976 57.025694
RightForeArm -13.035870 -0.000000 26.299534
RightHand -5.743848 -0.000000 -71.620992
RightHandThumb1 -24.326973 -0.000000 -32.862282
LeftUpLeg -40.579169 12.994488 -1.016663
LeftLeg 18.960568 -0.000000 -0.000000
LeftFoot 31.482460 31.741732 -15.600553
LeftToeBase 15.261501 -0.000000 -0.000000
RightUpLeg 7.092765 -26.111830 -5.924811
RightLeg 2.864517 -0.000000 -0.000000
RightFoot 36.926062 7.249637 12.273115
RightToeBase 9.176688 -0.000000 -0.000000
